<svg xmlns="http://www.w3.org/2000/svg" aria-label="Celestial Church of Christ seal" viewBox="85.33 65.58 649.56 649.56"><style>.punch{fill:transparent}</style><path fill="none" stroke="#7b431a" stroke-width="1.012" d="M417.072 92.366v12.39M388.98 116.5l-.466-20.905"/><path fill="none" stroke="#0d4d2f" stroke-width="1.012" d="M511.948 127.058q-.09.02-.172.03"/><path fill="none" stroke="#0e0c0b" stroke-width="1.012" d="M511.776 127.089q-.303.1-.394.232-.122.183.02.476.08.172.374.264"/><path fill="none" stroke="#1b593a" stroke-width="1.012" d="M511.776 127.089q-.09.486 0 .972"/><path fill="none" stroke="#0d4d2f" stroke-width="1.012" d="m645.182 275.042-3.614.263a1 1 0 0 1-.182 0l-3.746-.274"/><path d="M417.072 92.366v12.39c.658 8.97.233 20.875-10.852 22.808q-14.699 2.572-17.24-11.064l-.466-20.905.02-4.15a.559.558-1.654 0 1 .527-.557l7.886-.324a.365.365-1.508 0 1 .385.364q.06 9.162.658 23.942.162 3.857 3.877 5.527a1.832 1.75 52.656 0 0 .962.152c4.88-.607 5.588-5.67 5.476-9.688q-.263-9.09-.11-19.903a.619.618-.494 0 1 .596-.607l7.512-.314a.638.64-2.816 0 1 .658.597zm27.293 20.277q1.832 2.318 2.106 3.735.92 4.677 1.336 9.597.142 1.68.617 3.027a.828.835-6.74 0 1-.87 1.114l-7.036-.78a1.689 1.679-.425 0 1-1.478-1.448q-.982-7.37-1.043-8.078c-.253-3.26-1.427-5.446-4.778-5.629a.752.745 4.926 0 0-.79.658l-1.376 12.371a.948.947 6.374 0 1-1.053.84l-7.056-.79a.774.775 6.3 0 1-.689-.86l3.898-34.986a.419.421 2.397 0 1 .405-.375q9.131-.273 16.309 1.58c4.9 1.255 7.35 4.99 7.278 10.133q-.09 6.115-5.618 9.101a.53.525 56.928 0 0-.162.79m-80.329 8.898 1.073 10.083a.94.937-6.97 0 1-.81 1.033l-7.005.941a.95.96-7.915 0 1-1.073-.82l-4.738-35.148a.684.684 0 0 1 .587-.77l7.653-1.032a.54.54 0 0 1 .608.465l1.66 12.35a.378.37-7.213 0 0 .415.315l9.739-1.316a.734.724-7.961 0 0 .627-.82l-1.71-12.715a.696.706-7.485 0 1 .597-.79l7.704-1.032a.502.491-7.486 0 1 .567.425l4.778 35.411a.756.756 0 0 1-.648.85l-7.44 1.003a.694.694 0 0 1-.78-.597l-1.772-13.17a.448.458-7.678 0 0-.506-.396l-9.577 1.296a.595.601-4.793 0 0-.516.618q.071 2.54.506 3.593a1.147.666-75.128 0 1 .061.223"/><path fill="#f58634" d="M417.072 104.757V92.366zm-28.558-9.162.466 20.905q-1.68-10.488-.466-20.905"/><path d="M475.292 127.888a.706.7.993 0 1 .759.78l-.638 5.72a.744.733.434 0 1-.678.658c-13.97 1.133-24.57-6.196-22.595-21.411q.546-4.14 2.743-8.058c5.629-10.002 19.062-10.731 27.718-4.89a1.194 1.19 30.262 0 1 .405 1.529l-2.612 5.142a.943.94 31.338 0 1-1.387.334c-3.401-2.45-8.119-4.474-12.047-1.974-3.776 2.39-5.365 6.874-5.568 11.247-.384 8.261 6.702 11.612 13.9 10.923"/><path class="punch" fill="#fff" d="M434.172 98.863a.8.8 0 0 1 .876-.715l1.722.175a4.92 4.566 5.8 0 1 4.434 5.04l-.033.322a4.92 4.566 5.8 0 1-5.356 4.045l-1.722-.175a.8.8 0 0 1-.715-.877z"/><path d="m344.184 100.07.304 7.258a.304.305-1.792 0 1-.304.324c-7.572-.193-14.274 3.695-13.717 11.692.415 6.084 4.697 12.584 11.54 10.863q3.26-.82 6.247-3.058a1.326 1.32-31.382 0 1 1.984.476l2.146 4.424a1.815 1.815-30.737 0 1-.577 2.268c-8.443 6.013-21.198 7.613-27.252-2.835q-3.594-6.185-2.875-14.355c.992-11.409 11.328-18.06 22.292-17.28a.235.223 2.865 0 1 .212.222m167.764 26.989q-.09.02-.172.03-.303.102-.394.233-.122.183.02.476.08.172.374.264l-6.489 18.05a1.095 1.089 19.454 0 1-1.387.657l-6.418-2.247a1.213 1.213 0 0 1-.739-1.549l4.444-12.715a.807.797-70.762 0 0-.486-1.022l-8.564-2.997a.925.916 19.334 0 0-1.174.557l-4.262 12.168a.849.845 18.971 0 1-1.083.527l-6.965-2.44a.88.87-71.04 0 1-.537-1.114l11.47-32.759a1.169 1.165-70.852 0 1 1.478-.718l6.479 2.267a1.145 1.14-69.47 0 1 .678 1.498l-1.316 3.29a.207.04-79.1 0 1-.02.051l-2.571 8.068a.99.98-71.667 0 0 .607 1.225l8.676 3.037a.493.493 0 0 0 .627-.303l3.827-10.923a1.13 1.127 19.483 0 1 1.448-.689l6.479 2.268a1.172 1.169-70.71 0 1 .718 1.498z"/><path fill="#1a9a5e" d="M397.47 107.321q.252 0 .25 2.644 0 2.644-.252 2.644t-.251-2.644q0-2.644.253-2.644"/><path d="m294.684 151.419 9.855-5.687a.99.99 0 0 1 1.388.427l2.757 5.691a.99.99 0 0 1-.397 1.292l-17.896 10.333a.99.99 0 0 1-1.389-.427l-15.168-31.332a.99.99 0 0 1 .397-1.292l6.194-3.572a.99.99 0 0 1 1.388.427l11.482 23.713a.99.99 0 0 0 1.389.427"/><path fill="#1b1816" d="M511.776 127.089q-.09.486 0 .972-.293-.092-.374-.264-.142-.293-.02-.476.09-.131.394-.232"/><path fill="#1a9a5e" d="M511.948 127.058q.173.486-.172 1.003-.09-.486 0-.972.081-.01.172-.03"/><path d="M555.745 135.218a19.012 17.078-64 0 1 7.015 24.575 19.012 17.078-64 0 1-23.684 9.6 19.012 17.078-64 0 1-7.015-24.574 19.012 17.078-64 0 1 23.684-9.6"/><path class="punch" fill="#fff" d="M552.36 141.724a11.672 7.46-64.8 0 1 1.781 13.738 11.672 7.46-64.8 0 1-11.72 7.385 11.672 7.46-64.8 0 1-1.782-13.738 11.672 7.46-64.8 0 1 11.721-7.385"/><path d="m250.57 147.54 7.618-6.13a.98.98 0 0 1 1.243.01l27.097 22.499a.982.982 0 0 1-.013 1.52l-6.192 4.972a.98.98 0 0 1-1.242-.01l-5.912-4.908a.98.98 0 0 0-1.243-.01l-5.644 4.54a.98.98 0 0 0-.325 1.046l2.316 7.786a.98.98 0 0 1-.325 1.045l-5.645 4.541a.982.982 0 0 1-1.557-.485l-10.501-35.372a.98.98 0 0 1 .325-1.044m336.651 24.893-8.251-7.799a.85.85 0 0 0-1.25.089l-3.168 3.98a.85.85 0 0 0 .08 1.147l7.754 7.339a.85.85 0 0 1 .08 1.148l-3.734 4.68v-.001a.85.85 0 0 1-1.249.088l-7.584-7.172a.85.85 0 0 0-1.25.087l-7.663 9.608a.85.85 0 0 1-1.25.087l-5.3-5.022a.85.85 0 0 1-.08-1.147l21.613-27.122a.85.85 0 0 1 1.25-.088l14.937 14.133a.85.85 0 0 1 .08 1.148l-3.766 4.729a.85.85 0 0 1-1.249.088"/><path class="punch" fill="#fff" d="m260.1 153.45 6.914 5.993a.309.308-43.888 0 1-.01.476l-3.584 2.875a.48.477-28.476 0 1-.76-.223l-2.935-8.868a.235.235-79.014 0 1 .374-.253"/><path d="m260.23 187.406-5.5 5.31a.88.88 0 0 1-1.299-.081l-21.537-26.785a.88.88 0 0 1 .074-1.185l5.5-5.311a.88.88 0 0 1 1.299.081l21.537 26.785a.88.88 0 0 1-.074 1.186m-28.353-11.625-5.418 6.258a.66.66 0 0 0 .024.888l18.459 19.117a.66.66 0 0 1 .024.888l-5.28 6.098a.66.66 0 0 1-.97.026l-18.307-18.949a.66.66 0 0 0-.97.026l-5.274 6.082a.66.66 0 0 1-.97.026l-4.54-4.7a.66.66 0 0 1-.024-.887l17.701-20.452a.66.66 0 0 1 .972-.026l4.549 4.718a.66.66 0 0 1 .024.887"/><path fill="#d52b30" d="M219.555 338.252c3.969-35.958 22.687-70.681 47.742-96.02q5.447-5.517 15.408-13.677c26.554-21.735 59.444-35.513 94.016-41.627q21.745-3.847 41.586-2.926 22.484 1.053 46.861 7.836 53.877 14.972 91.88 54.909 11.196 11.763 22.767 30.896 9.516 15.722 16.086 37.082 3.058 9.941 3.776 19.093.01.05.01.111c-4.687-17.665-11.47-34.693-21.188-50.08-26.027-41.202-68.413-69.71-115.598-81.038-7.998-1.913-15.418-2.834-24.58-4.332q-1.437-.233-4.788-.233-19.204.02-40.463-.061-10.225-.04-18.354 1.255-14.102 2.248-26.857 5.943c-38.428 11.105-74.336 34.622-98.197 66.591q-21.886 29.328-30.107 66.278"/><path d="M613.688 206.709c-1.144-4.16-6.155-11.672-11.56-9.739q-5.558 1.984-8.22 6.985c-3.29 6.155.789 12.442 5.83 16.026a.827.814-53.25 0 1 .162 1.184l-3.492 4.394a1.01.998 29.082 0 1-1.124.313c-2.268-.79-4.242-2.996-5.821-4.89-6.064-7.247-7.825-16.672-2.095-24.548 5.78-7.917 16.177-11.308 24.518-5.386q6.135 4.353 8.94 12.148a1.27 1.266 67.208 0 1-.639 1.57l-5.213 2.52a.923.916-20.635 0 1-1.286-.577m-395.256 29.52a1.76 1.76 55.047 0 1-2.51-.446l-2.623-3.968a1.724 1.718 56.821 0 1 .496-2.39q4.616-3.026 7.046-7.926a1.824 1.811 43.504 0 0-.05-1.7q-1.782-3.18-5.052-.993c-4.738 3.179-11.207 8.21-16.795 3.108-3.806-3.472-4.06-10.113-2.116-14.699q2.552-5.983 7.907-9.961a1.132 1.13 54.948 0 1 1.61.283l3.087 4.677a1.306 1.301-35.052 0 1-.314 1.772c-2.51 1.852-4.656 4.06-5.942 6.853-.83 1.792.648 3.442 2.4 3.31 1.67-.131 3.633-1.862 6.033-3.452 4.332-2.895 9.273-4.231 13.393-.242q2.723 2.632 3.158 6.55c.84 7.622-3.857 14.921-9.728 19.224"/><path fill="#f58634" d="M408.1 203.68q5.297-.041 6.2-.002c41.403 1.806 81.765 15.26 114.808 40.346q22.028 16.723 37.04 38.296c13.8 19.822 23.598 42.417 27.202 66.187a.195.183-11.351 0 1-.151.212h-.01a.177.175 77.65 0 1-.203-.131c-10.984-44.24-38.671-80.319-77.302-103.836q-34.652-21.097-75.099-26.355c-10.083-1.31-19.892-.827-32.379-.731s-22.302-.239-32.364 1.226q-40.361 5.875-74.687 27.499c-38.267 24.104-65.4 60.602-75.707 105.004a.177.175-78.525 0 1-.2.135h-.01a.195.183 10.476 0 1-.156-.21c3.24-23.822 12.694-46.565 26.187-66.595q14.682-21.8 36.452-38.858c32.656-25.587 72.808-39.656 114.178-42.094q.902-.053 6.2-.093"/><path d="m606.85 247.546 10.861-7.186a.82.82 0 0 0 .258-1.095l-4.979-8.61a.82.82 0 0 0-1.162-.273l-10.31 6.823a.82.82 0 0 1-1.163-.273l-3.896-6.747a.82.82 0 0 1 .258-1.094l28.514-18.864a.82.82 0 0 1 1.163.274l3.895 6.746a.82.82 0 0 1-.257 1.094l-9.87 6.529a.82.82 0 0 0-.257 1.093l4.96 8.6a.82.82 0 0 0 1.162.273l9.347-6.185a.82.82 0 0 1 1.163.274l3.876 6.716a.82.82 0 0 1-.258 1.094l-28.534 18.875a.82.82 0 0 1-1.163-.274l-3.865-6.696a.82.82 0 0 1 .257-1.094"/><path fill="#f0e641" d="M408.126 220.857q9.088-.049 16.786.668c37.149 3.457 72.803 16.12 102.363 38.17q20.43 15.235 34.136 34.389 14.68 20.5 21.856 43.287 2.754 8.757 3.888 16.926.03.183.01.284a.042.04 43.494 0 1-.081 0q-11.753-43.156-43.358-72.352c-28.872-26.685-65.144-42.893-104.148-47.817-9.89-1.25-20.859-.838-31.384-.783-10.525.056-21.498-.239-31.374 1.116-38.949 5.338-75.047 21.93-103.634 48.92q-31.293 29.53-42.588 72.808a.042.04-44.102 0 1-.08 0q-.022-.1.006-.283 1.047-8.181 3.708-16.967 6.935-22.862 21.395-43.517 13.503-19.297 33.77-34.75c29.324-22.36 64.842-35.402 101.952-39.252q7.69-.8 16.777-.847"/><path d="m204.729 248.003 5.893-11.633a.71.71 0 0 1 .987-.293l4.936 2.853a.71.71 0 0 1 .277.934l-10.22 20.155a.71.71 0 0 1-.986.294l-28.635-16.531a.71.71 0 0 1-.278-.934l10.039-19.811a.71.71 0 0 1 .986-.294l4.955 2.855a.71.71 0 0 1 .279.934l-5.72 11.295a.71.71 0 0 0 .277.934l4.015 2.317a.71.71 0 0 0 .986-.293l5.236-10.318a.71.71 0 0 1 .986-.293l4.895 2.824a.71.71 0 0 1 .278.934l-5.366 10.596a.71.71 0 0 0 .278.934l4.916 2.835a.71.71 0 0 0 .986-.294"/><path fill="#1a9a5e" d="M408.89 236.106q5.538-.008 6.917.079 55.87 3.496 100.18 35.182 7.866 5.628 17.706 14.922 9.132 8.625 15.63 16.936 21.979 28.072 30.978 62.481 1.893 7.239 2.663 14.79.01.02.01.041 0 .405-.03-.02 0-.05-.02-.112-3.372-13.15-8.747-26.533c-22.15-55.152-74.255-93.49-132.545-102.66q-6.915-1.094-16.3-1.15-6.869-.04-16.423-.028-9.555.012-16.424.071-9.385.08-16.296 1.192c-58.266 9.325-110.27 47.798-132.276 103.008q-5.34 13.397-8.677 26.556-.02.061-.02.112-.03.425-.03.02 0-.02.01-.04.75-7.555 2.623-14.798 8.91-34.432 30.814-62.562 6.477-8.328 15.586-16.977 9.816-9.32 17.667-14.969 44.226-31.802 100.088-35.444 1.378-.09 6.916-.097"/><path d="m645.182 275.042-3.614.263a1 1 0 0 1-.182 0l-3.746-.274q-.678-.779-1.62-1.083a.576.576 0 0 0-.729.365q-.981 2.844-2.945 4.505-7.735 6.55-8.423 7.299a.992.992 57.3 0 1-1.67-.365l-2.309-6.945a2.146 2.144 60.77 0 1 .648-2.298q5.862-4.98 6.641-5.618 3.381-2.784 1.276-6.661a.857.852-26.88 0 0-1.124-.365l-10.214 4.95a1.116 1.113 67.774 0 1-1.54-.647l-2.398-7.269a.84.832 69.055 0 1 .455-1.032q8.352-3.625 18.303-8.463.456-.223 1.954-.588a1.305.92-54.827 0 0 .283-.1l8.94-4.384a1.454 1.454-26.474 0 1 1.933.648c3.685 7.177 11.348 23.01.081 28.062"/><path class="punch" fill="#fff" d="M641.055 257.86a.98.98 0 0 1 1.281.536l.83 2.023a4.89 3.837 67.7 0 1-1.695 5.98l-.393.161a4.89 3.837 67.7 0 1-5.405-3.068l-.83-2.023a.98.98 0 0 1 .536-1.281z"/><path fill="#15b0e9" d="M407.903 257.816q6.193-.059 7.158.004 57.356 3.727 99.945 37.58 20.955 16.653 35.178 38.367 14.396 21.968 21.654 47.418 2.5 8.757 3.645 17.503a.063.06 34.191 0 1-.122.02c-2.267-6.995-4.343-14.82-6.499-20.54q-18.779-49.888-62.886-79.61-30.654-20.662-67.7-26.217c-9.561-1.433-19.102-.938-30.242-.832-11.14.107-20.688-.205-30.22 1.41q-36.933 6.263-67.186 27.507-43.531 30.56-61.352 80.799c-2.047 5.76-3.972 13.623-6.106 20.66a.063.06-35.287 0 1-.121-.017q.976-8.767 3.309-17.57 6.77-25.585 20.743-47.823 13.805-21.983 34.438-39.034 41.934-34.66 99.208-39.485.963-.08 7.156-.14"/><path d="m193.921 273.518 4.306-12.3a.597.597 0 0 1 .798-.353l5.347 2.275a.597.597 0 0 1 .33.747l-7.541 21.527a.597.597 0 0 1-.798.352l-30.402-12.935a.597.597 0 0 1-.33-.747l2.804-8.021a.597.597 0 0 1 .797-.353l23.892 10.16a.597.597 0 0 0 .797-.352"/><path fill="#1a9a5e" d="M645.182 275.042q-3.604 1.883-7.542-.01l3.746.273a1 1 0 0 0 .182 0z"/><path d="m656.506 279.023 2.34 7.883a.71.71 0 0 1-.457.874l-31.687 10.488a.71.71 0 0 1-.902-.471l-2.34-7.874a.71.71 0 0 1 .457-.874l31.686-10.497a.71.71 0 0 1 .903.47M173.332 294.55l1.7-8.433a1.156 1.15 13.177 0 1 1.428-.881l4.252 1.123a1.329 1.321 14.255 0 1 .952 1.59l-2.693 11.298a.418.415 13.692 0 0 .304.496l6.124 1.62a.498.491-75.553 0 0 .608-.365l3.188-13.373a.498.491-75.553 0 1 .608-.365l5.355 1.418a.7.697 14.037 0 1 .506.84l-5.365 22.484a.727.72-76.062 0 1-.88.537l-31.15-8.251a.857.854 14.203 0 1-.618-1.033l5.244-22.018a.346.344 14.039 0 1 .425-.253l5.831 1.549a.366.359-75.773 0 1 .253.435l-2.986 12.533a.867.852-75.971 0 0 .607 1.032l4.525 1.195a.777.775 16.212 0 0 .942-.516l.82-2.602z"/><path fill="#1b1816" d="M407.94 295.41c28.95-.02 57.636 19.006 77.583 38.757 1.74 1.722 4.073 4.453 4.075 6.91s-2.328 5.19-4.065 6.915c-19.92 19.78-48.579 38.844-77.53 38.865-28.95.02-57.636-19.005-77.583-38.756-1.74-1.723-4.073-4.453-4.075-6.91s2.328-5.19 4.065-6.916c19.92-19.779 48.578-38.844 77.53-38.864"/><path d="M663.151 318.36a.265.269 6.23 0 1-.273.222l-7.006-.304a.186.184 8.81 0 1-.172-.232q1.58-5.882-.435-10.245-.638-1.367-1.549-1.58a2.526 2.343-75.669 0 0-2.824 1.823c-1.742 6.256-1.701 16.015-10.428 16.946q-8.007.85-11.064-7.086-2.896-7.522-1.215-16.36a.9.898 8.375 0 1 .982-.728l5.841.648a.623.619 8.808 0 1 .537.728c-.78 4.404-1.438 9.223 1.305 12.523q1.458 1.741 3.27-.101 1.256-1.266 1.711-4.07c1.023-6.378 2.44-13.17 9.84-13.99 4.97-.547 8.98 3.057 10.508 7.714q2.237 6.843.972 14.091m-481.133-.293a1.335 1.325-7.285 0 1 1.215-1.56l3.978-.283a1.505 1.503-5.73 0 1 1.6 1.306c1.437 11.146-2.015 26.372-15.864 26.463q-15.62.111-18.282-14.841-1.428-8.048 1.822-16.228a.97.964-69.477 0 1 1.215-.557l4.818 1.691a1.148 1.141 21.085 0 1 .679 1.518q-1.742 4.232-1.944 5.852-1.154 9.283 7.208 11.925 5.466 1.731 9.658-1.488c4.09-3.138 4.757-9.03 3.897-13.798"/><path class="punch" fill="#fff" d="M370.64 341.093q-.013 9.977 7.02 19.268 4.051 5.345 6.279 7.451.131.122.182.344.05.243-.01.395-.172.425-.658.334-5.001-.931-10.063-3.523c-11.733-5.993-23.668-14.132-32.395-24.144a.15.028 47.005 0 1-.062-.098l-.002-.069.002-.068a.15.028-46.845 0 1 .063-.098c8.754-9.988 20.712-18.094 32.461-24.054q5.07-2.578 10.073-3.495.486-.09.657.336.06.152.009.395-.051.222-.183.343-2.233 2.1-6.3 7.434-7.058 9.271-7.072 19.249m60.665 28.582a.545.545 16.969 0 1-.496-.932c13.08-12.006 19.821-28.305 9.04-44.613q-4.14-6.267-8.058-10.083a.533.532 70.066 0 1 .425-.911q1.822.182 4.231 1.073c9.85 3.654 18.921 9.89 28.407 17.129q5.112 3.897 9.566 9.556a.477.467-45.651 0 1 0 .577q-2.895 3.827-6.246 6.712-12.027 10.356-26.098 17.453-5.396 2.723-10.771 4.039"/><path class="punch" fill="#fff" d="M404.681 330.78a12.13 12.13 0 0 1-12.127 12.129h-2.39a12.13 12.13 0 0 1-12.127-12.128v-2.51a12.13 12.13 0 0 1 12.127-12.129h2.39a12.13 12.13 0 0 1 12.127 12.128z"/><path d="m658.119 335.252-.353-8.63a.537.537 0 0 1 .497-.556l5.955-.438a.537.537 0 0 1 .576.513l1.18 28.284a.537.537 0 0 1-.497.558l-5.905.428a.537.537 0 0 1-.575-.512l-.368-8.775a.537.537 0 0 0-.575-.513l-25.795 1.874a.537.537 0 0 1-.575-.513l-.37-8.736a.537.537 0 0 1 .498-.558l25.81-1.869a.537.537 0 0 0 .497-.557"/><path fill="#1b1816" d="M298.234 432.976q.01.01.122.152a1.73 1.703 76.875 0 0 .992.628q2.48.546 3.006.9 19.215 12.655 28.579 18.719 3.32 2.146 7.035 3.664a1.081 1.079 16.347 0 0 1.468-.8l10.043-53.481a.942.94-57.027 0 1 1.7-.365q2.673 3.888 27.678 41.78 1.72 2.611 3.826 4.91a1.902 1.883 52.34 0 0 2.42.323q.982-.627 1.71-2.399 15.712-38.216 19.812-47.509.931-2.095 1.184-2.743a.62.62-45.448 0 1 1.154-.01q12.786 32.283 19.68 49.503.557 1.397 1.58 2.844a1.697 1.695-39.271 0 0 2.54.254q1.509-1.418 2.562-2.896 3.583-5.041 27.576-41 1.68-2.52 2.632-3.725a.38.378-35.274 0 1 .658.112q1.113 3.391 1.69 6.418 4.657 24.741 7.593 41.455c.435 2.47 1.255 4.596 1.66 6.985a.66.656-14.143 0 0 .87.516q3.129-1.083 5.903-2.915 19.143-12.543 33.154-21.654a.947.94-20.382 0 1 1.447.658q.213 1.458-.81 3.402-5.628 10.76-29.62 57.925-1.823 3.584-6.641 1.843c-4.768-1.711-8.615-3.3-13.96-4.272-5.204-.942-13.788-3.554-20.399-4.04q-7.289-.526-15.782-1.62c-10.67-1.366-22.768-.789-32.112-.93-9.718-.142-20.823 1.812-30.41 2.591-7.785.638-13.93 2.693-22.585 4.535-3.706.79-7.947 2.49-11.035 3.635q-2.176.8-4.525.647a2.246 2.223-11.091 0 1-1.843-1.224q-3.219-6.439-29.347-57.491-1.822-3.553-1.7-5.163a.283.282 26.814 0 1 .495-.162"/><path class="punch" fill="#fff" d="M408.883 430.415q.7 0 .966.42 7.588 11.981 18.43 29.413a1.21 1.207 52.078 0 0 1.863.233l27.404-26.472a1.608 1.603 59.66 0 1 2.652.698L467 457.282a.614.52 40.269 0 1 .03.183q.101 2.156 1.56 6.084a.784.776 78.038 0 0 .768.506q2.258-.142 4.465-1.053 11.024-4.576 29.307-12.502.992-.436 1.923-.162a.907.905-62.645 0 1 .456 1.437l-27.83 34.916a1.1 1.081 13.012 0 1-.627.384c-4.667.891-9.516-1.427-14.213-1.964q-6.51-.749-14.486-2.196a15.842 15.382-39 0 0-2.805-.253q-4.241.02-5.183-.112-5.679-.84-9.06-.567a5.715 5.57 48.224 0 1-1.61-.111q-2.703-.597-3.783-.644-4.71-.202-17.071-.213t-17.072.185q-1.08.045-3.784.638a5.715 5.57-48.129 0 1-1.61.108q-3.38-.279-9.062.552-.941.13-5.183.103a15.842 15.382 39.095 0 0-2.804.248q-7.98 1.435-14.49 2.173c-4.699.53-9.552 2.84-14.217 1.94a1.1 1.081-12.918 0 1-.627-.385l-27.771-34.961a.907.905 62.74 0 1 .457-1.437q.932-.272 1.924.165 18.27 7.957 29.286 12.55 2.205.916 4.463 1.061a.784.776-77.943 0 0 .77-.505q1.464-3.925 1.569-6.081a.614.52-40.174 0 1 .03-.183l6.84-22.563a1.608 1.603-59.566 0 1 2.654-.695l27.36 26.518a1.21 1.207-51.984 0 0 1.864-.23q10.87-17.414 18.478-29.383.266-.418.966-.418"/><path fill="#1b1816" d="M416.11 565.552q-.12 76.998-.05 113.22.01 4.757-.445 8.088c-.679 4.99-6.135 4.667-10.488 4.404-5.325-.314-5.507-3.665-5.507-8.342q.06-72.767-.03-117.249a.688.678 0 0 0-.69-.678q-24.447-.02-27.626-.03-5.304-.03-8.15-.77c-4.514-1.174-3.664-10.397-3.036-13.687.617-3.199 3.827-3.593 6.63-3.593q18.101.02 24.61-.03c2.693-.01 5.71-.568 7.735-.83a.547.542-3.129 0 0 .476-.527q.182-16.572.09-30.057-.02-3.857.385-7.248c.72-6.054 7.623-5.79 12.098-4.93 2.976.577 3.624 4.06 3.634 6.671q.04 14.69.03 29.611 0 1.64.314 5.79a.682.685 3.386 0 0 .547.618q4.545.911 6.013.911 18.759.02 30.664.03 5.021.01 5.568 5.012.536 4.818-.172 8.888c-.598 3.493-4.13 3.968-7.208 4.019q-9.698.192-34.835.152a.557.557 0 0 0-.556.557"/></svg>